{
	"patcher" : 	{
		"fileversion" : 1,
		"appversion" : 		{
			"major" : 8,
			"minor" : 0,
			"revision" : 1,
			"architecture" : "x64",
			"modernui" : 1
		}
,
		"classnamespace" : "box",
		"rect" : [ 267.0, 134.0, 536.0, 864.0 ],
		"bglocked" : 0,
		"openinpresentation" : 0,
		"default_fontsize" : 12.0,
		"default_fontface" : 0,
		"default_fontname" : "Arial",
		"gridonopen" : 1,
		"gridsize" : [ 15.0, 15.0 ],
		"gridsnaponopen" : 1,
		"objectsnaponopen" : 1,
		"statusbarvisible" : 2,
		"toolbarvisible" : 1,
		"lefttoolbarpinned" : 0,
		"toptoolbarpinned" : 0,
		"righttoolbarpinned" : 0,
		"bottomtoolbarpinned" : 0,
		"toolbars_unpinned_last_save" : 0,
		"tallnewobj" : 0,
		"boxanimatetime" : 200,
		"enablehscroll" : 1,
		"enablevscroll" : 1,
		"devicewidth" : 0.0,
		"description" : "",
		"digest" : "",
		"tags" : "",
		"style" : "",
		"subpatcher_template" : "",
		"boxes" : [ 			{
				"box" : 				{
					"id" : "obj-37",
					"maxclass" : "newobj",
					"numinlets" : 1,
					"numoutlets" : 1,
					"outlettype" : [ "multichannelsignal" ],
					"patching_rect" : [ 337.0, 509.0, 128.0, 22.0 ],
					"text" : "mc.sig~ 0.5 @chans 8"
				}

			}
, 			{
				"box" : 				{
					"id" : "obj-36",
					"maxclass" : "mc.ezdac~",
					"numinlets" : 1,
					"numoutlets" : 0,
					"patching_rect" : [ 159.0, 785.0, 45.0, 45.0 ]
				}

			}
, 			{
				"box" : 				{
					"id" : "obj-35",
					"lastchannelcount" : 2,
					"maxclass" : "mc.live.gain~",
					"numinlets" : 1,
					"numoutlets" : 4,
					"outlettype" : [ "multichannelsignal", "", "float", "list" ],
					"parameter_enable" : 1,
					"patching_rect" : [ 159.0, 635.0, 48.0, 136.0 ],
					"saved_attribute_attributes" : 					{
						"valueof" : 						{
							"parameter_type" : 0,
							"parameter_unitstyle" : 4,
							"parameter_mmin" : -70.0,
							"parameter_longname" : "mc.live.gain~[1]",
							"parameter_mmax" : 6.0,
							"parameter_initial" : [ 0.0 ],
							"parameter_shortname" : "mc.live.gain~[1]"
						}

					}
,
					"varname" : "mc.live.gain~[1]"
				}

			}
, 			{
				"box" : 				{
					"id" : "obj-34",
					"maxclass" : "newobj",
					"numinlets" : 2,
					"numoutlets" : 1,
					"outlettype" : [ "multichannelsignal" ],
					"patching_rect" : [ 159.0, 596.0, 197.0, 22.0 ],
					"text" : "mc.mixdown~ 2 @linearpanmode 1"
				}

			}
, 			{
				"box" : 				{
					"id" : "obj-30",
					"lastchannelcount" : 8,
					"maxclass" : "mc.live.gain~",
					"numinlets" : 1,
					"numoutlets" : 4,
					"outlettype" : [ "multichannelsignal", "", "float", "list" ],
					"parameter_enable" : 1,
					"patching_rect" : [ 159.0, 452.0, 48.0, 136.0 ],
					"saved_attribute_attributes" : 					{
						"valueof" : 						{
							"parameter_type" : 0,
							"parameter_unitstyle" : 4,
							"parameter_mmin" : -70.0,
							"parameter_longname" : "mc.live.gain~",
							"parameter_mmax" : 6.0,
							"parameter_initial" : [ 0.0 ],
							"parameter_shortname" : "mc.live.gain~"
						}

					}
,
					"varname" : "mc.live.gain~"
				}

			}
, 			{
				"box" : 				{
					"id" : "obj-29",
					"maxclass" : "message",
					"numinlets" : 2,
					"numoutlets" : 1,
					"outlettype" : [ "" ],
					"patching_rect" : [ 32.0, 305.0, 111.0, 22.0 ],
					"text" : "setvalue $1 freq $2"
				}

			}
, 			{
				"box" : 				{
					"id" : "obj-27",
					"maxclass" : "newobj",
					"numinlets" : 1,
					"numoutlets" : 1,
					"outlettype" : [ "" ],
					"patching_rect" : [ 102.0, 168.0, 32.0, 22.0 ],
					"text" : "mtof"
				}

			}
, 			{
				"box" : 				{
					"id" : "obj-22",
					"maxclass" : "message",
					"numinlets" : 2,
					"numoutlets" : 1,
					"outlettype" : [ "" ],
					"patching_rect" : [ 325.5, 266.0, 110.0, 22.0 ],
					"text" : "setvalue $1 1 1 0 0"
				}

			}
, 			{
				"box" : 				{
					"id" : "obj-19",
					"maxclass" : "newobj",
					"numinlets" : 3,
					"numoutlets" : 1,
					"outlettype" : [ "" ],
					"patching_rect" : [ 73.0, 216.0, 76.0, 22.0 ],
					"text" : "pack i f i"
				}

			}
, 			{
				"box" : 				{
					"id" : "obj-16",
					"maxclass" : "newobj",
					"numinlets" : 2,
					"numoutlets" : 1,
					"outlettype" : [ "" ],
					"patching_rect" : [ 74.0, 94.0, 46.0, 22.0 ],
					"text" : "pack i i"
				}

			}
, 			{
				"box" : 				{
					"id" : "obj-15",
					"maxclass" : "newobj",
					"numinlets" : 2,
					"numoutlets" : 3,
					"outlettype" : [ "int", "int", "int" ],
					"patching_rect" : [ 74.0, 124.0, 75.0, 22.0 ],
					"text" : "poly 8 1"
				}

			}
, 			{
				"box" : 				{
					"id" : "obj-9",
					"maxclass" : "kslider",
					"numinlets" : 2,
					"numoutlets" : 2,
					"outlettype" : [ "int", "int" ],
					"parameter_enable" : 0,
					"patching_rect" : [ 74.0, 20.0, 336.0, 53.0 ]
				}

			}
, 			{
				"box" : 				{
					"id" : "obj-6",
					"maxclass" : "newobj",
					"numinlets" : 2,
					"numoutlets" : 1,
					"outlettype" : [ "multichannelsignal" ],
					"patching_rect" : [ 159.0, 357.0, 40.0, 22.0 ],
					"text" : "mc.*~"
				}

			}
, 			{
				"box" : 				{
					"id" : "obj-3",
					"maxclass" : "newobj",
					"numinlets" : 2,
					"numoutlets" : 3,
					"outlettype" : [ "multichannelsignal", "", "" ],
					"patching_rect" : [ 325.5, 305.0, 111.0, 22.0 ],
					"text" : "mc.line~ @chans 8"
				}

			}
, 			{
				"box" : 				{
					"id" : "obj-2",
					"maxclass" : "newobj",
					"numinlets" : 1,
					"numoutlets" : 1,
					"outlettype" : [ "multichannelsignal" ],
					"patching_rect" : [ 159.0, 305.0, 121.0, 22.0 ],
					"text" : "mc.noise~ @chans 8"
				}

			}
, 			{
				"box" : 				{
					"data" : 					{
						"patcher" : 						{
							"fileversion" : 1,
							"appversion" : 							{
								"major" : 8,
								"minor" : 0,
								"revision" : 1,
								"architecture" : "x64",
								"modernui" : 1
							}
,
							"classnamespace" : "dsp.gen",
							"rect" : [ 379.0, 91.0, 456.0, 407.0 ],
							"bglocked" : 0,
							"openinpresentation" : 0,
							"default_fontsize" : 12.0,
							"default_fontface" : 0,
							"default_fontname" : "Arial",
							"gridonopen" : 1,
							"gridsize" : [ 15.0, 15.0 ],
							"gridsnaponopen" : 1,
							"objectsnaponopen" : 1,
							"statusbarvisible" : 2,
							"toolbarvisible" : 1,
							"lefttoolbarpinned" : 0,
							"toptoolbarpinned" : 0,
							"righttoolbarpinned" : 0,
							"bottomtoolbarpinned" : 0,
							"toolbars_unpinned_last_save" : 0,
							"tallnewobj" : 0,
							"boxanimatetime" : 200,
							"enablehscroll" : 1,
							"enablevscroll" : 1,
							"devicewidth" : 0.0,
							"description" : "",
							"digest" : "",
							"tags" : "",
							"style" : "",
							"subpatcher_template" : "",
							"boxes" : [ 								{
									"box" : 									{
										"maxclass" : "newobj",
										"text" : "* 0.99",
										"outlettype" : [ "" ],
										"patching_rect" : [ 97.5, 202.0, 40.0, 22.0 ],
										"id" : "obj-9",
										"numinlets" : 1,
										"numoutlets" : 1
									}

								}
, 								{
									"box" : 									{
										"maxclass" : "newobj",
										"text" : "mstosamps",
										"outlettype" : [ "" ],
										"patching_rect" : [ 270.5, 111.0, 70.0, 22.0 ],
										"id" : "obj-8",
										"numinlets" : 1,
										"numoutlets" : 1
									}

								}
, 								{
									"box" : 									{
										"maxclass" : "newobj",
										"text" : "!/ 1000.",
										"outlettype" : [ "" ],
										"patching_rect" : [ 270.5, 79.0, 49.0, 22.0 ],
										"id" : "obj-7",
										"numinlets" : 1,
										"numoutlets" : 1
									}

								}
, 								{
									"box" : 									{
										"maxclass" : "newobj",
										"text" : "param freq 220",
										"outlettype" : [ "" ],
										"patching_rect" : [ 270.5, 49.0, 90.0, 22.0 ],
										"id" : "obj-6",
										"numinlets" : 0,
										"numoutlets" : 1
									}

								}
, 								{
									"box" : 									{
										"maxclass" : "newobj",
										"text" : "delay @feedback 1 @interp cubic",
										"outlettype" : [ "" ],
										"patching_rect" : [ 97.5, 155.0, 188.0, 22.0 ],
										"id" : "obj-5",
										"numinlets" : 2,
										"numoutlets" : 1
									}

								}
, 								{
									"box" : 									{
										"maxclass" : "newobj",
										"text" : "in 1",
										"outlettype" : [ "" ],
										"patching_rect" : [ 97.5, 49.0, 28.0, 22.0 ],
										"id" : "obj-1",
										"numinlets" : 0,
										"numoutlets" : 1
									}

								}
, 								{
									"box" : 									{
										"maxclass" : "newobj",
										"text" : "out 1",
										"patching_rect" : [ 97.5, 324.0, 35.0, 22.0 ],
										"id" : "obj-4",
										"numinlets" : 1,
										"numoutlets" : 0
									}

								}
 ],
							"lines" : [ 								{
									"patchline" : 									{
										"source" : [ "obj-9", 0 ],
										"destination" : [ "obj-5", 0 ],
										"midpoints" : [ 107.0, 251.0, 77.25, 251.0, 77.25, 133.0, 107.0, 133.0 ],
										"order" : 1
									}

								}
, 								{
									"patchline" : 									{
										"source" : [ "obj-9", 0 ],
										"destination" : [ "obj-4", 0 ],
										"order" : 0
									}

								}
, 								{
									"patchline" : 									{
										"source" : [ "obj-8", 0 ],
										"destination" : [ "obj-5", 1 ]
									}

								}
, 								{
									"patchline" : 									{
										"source" : [ "obj-7", 0 ],
										"destination" : [ "obj-8", 0 ]
									}

								}
, 								{
									"patchline" : 									{
										"source" : [ "obj-6", 0 ],
										"destination" : [ "obj-7", 0 ]
									}

								}
, 								{
									"patchline" : 									{
										"source" : [ "obj-5", 0 ],
										"destination" : [ "obj-9", 0 ]
									}

								}
, 								{
									"patchline" : 									{
										"source" : [ "obj-1", 0 ],
										"destination" : [ "obj-5", 0 ]
									}

								}
 ]
						}

					}
,
					"id" : "obj-1",
					"maxclass" : "newobj",
					"numinlets" : 1,
					"numoutlets" : 1,
					"outlettype" : [ "multichannelsignal" ],
					"patching_rect" : [ 159.0, 422.0, 55.0, 22.0 ],
					"text" : "mc.gen~"
				}

			}
 ],
		"lines" : [ 			{
				"patchline" : 				{
					"destination" : [ "obj-30", 0 ],
					"source" : [ "obj-1", 0 ]
				}

			}
, 			{
				"patchline" : 				{
					"destination" : [ "obj-19", 2 ],
					"source" : [ "obj-15", 2 ]
				}

			}
, 			{
				"patchline" : 				{
					"destination" : [ "obj-19", 0 ],
					"source" : [ "obj-15", 0 ]
				}

			}
, 			{
				"patchline" : 				{
					"destination" : [ "obj-27", 0 ],
					"source" : [ "obj-15", 1 ]
				}

			}
, 			{
				"patchline" : 				{
					"destination" : [ "obj-15", 0 ],
					"source" : [ "obj-16", 0 ]
				}

			}
, 			{
				"patchline" : 				{
					"destination" : [ "obj-22", 0 ],
					"order" : 0,
					"source" : [ "obj-19", 0 ]
				}

			}
, 			{
				"patchline" : 				{
					"destination" : [ "obj-29", 0 ],
					"order" : 1,
					"source" : [ "obj-19", 0 ]
				}

			}
, 			{
				"patchline" : 				{
					"destination" : [ "obj-6", 0 ],
					"source" : [ "obj-2", 0 ]
				}

			}
, 			{
				"patchline" : 				{
					"destination" : [ "obj-3", 0 ],
					"source" : [ "obj-22", 0 ]
				}

			}
, 			{
				"patchline" : 				{
					"destination" : [ "obj-19", 1 ],
					"source" : [ "obj-27", 0 ]
				}

			}
, 			{
				"patchline" : 				{
					"destination" : [ "obj-1", 0 ],
					"source" : [ "obj-29", 0 ]
				}

			}
, 			{
				"patchline" : 				{
					"destination" : [ "obj-6", 1 ],
					"source" : [ "obj-3", 0 ]
				}

			}
, 			{
				"patchline" : 				{
					"destination" : [ "obj-34", 0 ],
					"source" : [ "obj-30", 0 ]
				}

			}
, 			{
				"patchline" : 				{
					"destination" : [ "obj-35", 0 ],
					"source" : [ "obj-34", 0 ]
				}

			}
, 			{
				"patchline" : 				{
					"destination" : [ "obj-36", 0 ],
					"source" : [ "obj-35", 0 ]
				}

			}
, 			{
				"patchline" : 				{
					"destination" : [ "obj-34", 1 ],
					"source" : [ "obj-37", 0 ]
				}

			}
, 			{
				"patchline" : 				{
					"destination" : [ "obj-1", 0 ],
					"source" : [ "obj-6", 0 ]
				}

			}
, 			{
				"patchline" : 				{
					"destination" : [ "obj-16", 1 ],
					"source" : [ "obj-9", 1 ]
				}

			}
, 			{
				"patchline" : 				{
					"destination" : [ "obj-16", 0 ],
					"source" : [ "obj-9", 0 ]
				}

			}
 ],
		"parameters" : 		{
			"obj-35" : [ "mc.live.gain~[1]", "mc.live.gain~[1]", 0 ],
			"obj-30" : [ "mc.live.gain~", "mc.live.gain~", 0 ],
			"parameterbanks" : 			{

			}

		}
,
		"dependency_cache" : [  ],
		"autosave" : 0
	}

}
